<svg width="24" height="24" viewBox="0 0 24 24" fill="none" xmlns="http://www.w3.org/2000/svg">
<path fill-rule="evenodd" clip-rule="evenodd" d="M12.75 7.5V11.5753L16.1362 13.6069C16.4914 13.8202 16.6064 14.2811 16.3931 14.6362C16.1798 14.9914 15.7189 15.1064 15.3638 14.8931L11.6138 12.6431C11.388 12.5075 11.2499 12.2634 11.25 12V7.5C11.25 7.08579 11.5858 6.75 12 6.75C12.4142 6.75 12.75 7.08579 12.75 7.5V7.5ZM12 3C9.61024 2.99405 7.3174 3.94433 5.6325 5.63906C4.95094 6.32906 4.34531 6.99281 3.75 7.6875V6C3.75 5.58579 3.41421 5.25 3 5.25C2.58579 5.25 2.25 5.58579 2.25 6V9.75C2.25 10.1642 2.58579 10.5 3 10.5H6.75C7.16421 10.5 7.5 10.1642 7.5 9.75C7.5 9.33579 7.16421 9 6.75 9H4.59375C5.26406 8.21062 5.93156 7.46719 6.69281 6.69656C9.6018 3.78759 14.3111 3.76489 17.248 6.64568C20.1849 9.52648 20.253 14.2354 17.4007 17.1999C14.5484 20.1644 9.84035 20.278 6.84844 17.4544C6.6535 17.2702 6.3751 17.2039 6.1181 17.2806C5.8611 17.3574 5.66454 17.5653 5.60247 17.8263C5.54041 18.0872 5.62225 18.3614 5.81719 18.5456C8.75577 21.3187 13.1822 21.7935 16.6422 19.7069C20.1021 17.6202 21.7473 13.4835 20.6656 9.59055C19.5839 5.69759 16.0404 3.00263 12 3V3Z" fill="white"/>
</svg>
