<svg width="24" height="24" viewBox="0 0 24 24" fill="none" xmlns="http://www.w3.org/2000/svg">
<path fill-rule="evenodd" clip-rule="evenodd" d="M24 12.75C24 13.1642 23.6642 13.5 23.25 13.5H21.75V15C21.75 15.4142 21.4142 15.75 21 15.75C20.5858 15.75 20.25 15.4142 20.25 15V13.5H18.75C18.3358 13.5 18 13.1642 18 12.75C18 12.3358 18.3358 12 18.75 12H20.25V10.5C20.25 10.0858 20.5858 9.75 21 9.75C21.4142 9.75 21.75 10.0858 21.75 10.5V12H23.25C23.6642 12 24 12.3358 24 12.75V12.75ZM13.5 14.7825C15.9156 13.278 17.0414 10.3547 16.259 7.61855C15.4766 4.88243 12.9755 2.99625 10.1297 2.99625C7.2839 2.99625 4.78276 4.88243 4.00036 7.61855C3.21796 10.3547 4.3438 13.278 6.75938 14.7825C4.82344 15.4163 3.08156 16.6003 1.68094 18.2672C1.49375 18.4897 1.45203 18.8003 1.5739 19.0643C1.69576 19.3283 1.95924 19.4981 2.25 19.5H18C18.2918 19.5003 18.5573 19.3313 18.6805 19.0669C18.8038 18.8024 18.7625 18.4905 18.5747 18.2672C17.1731 16.6003 15.4312 15.4163 13.5 14.7825V14.7825Z" fill="white"/>
</svg>
